:SAMPLES-PER-SECOND 30
:FULLY-SPECIFIED
:DEGREES
169
root  -78.5412 41.7894 -5.91795 178.776 -87.3965 179.925
RightUpLeg  -0.633122 -6.97696 -3.68316
RightLeg  2.76939 -4.10427 3.39736
RightFoot  0.620058 0.260025 -2.43823
RightToes  -1.16417e-010 0 -3.6325e-017
Spine  1.7402 0.163259 4.60099
Spine1  1.32397 1.65136 -7.59773
HEad  -3.44794 3.0894 2.69777
LeftShoulder1  0.0891393 0.353727 6.3956
LeftArm  -21.1411 16.4025 -4.50031
LeftForeArm  13.7339 -16.7412 -2.67428
LeftHand  -0.244104 0.0205437 5.32207
RightShoulder  0.434454 -0.755387 8.34633
RightArm  -15.6802 -0.372609 -8.26592
RightForeArm  -15.3631 1.81984 5.84421
RightHand  -1.22881 4.19034 -15.0813
LeftUpLeg  1.62153 4.44291 1.96684
LeftLeg  2.36037 8.84704 -3.45519
LeftFoot  -2.46678 -0.182636 2.5455
LeftToes  -1.16419e-010 -9.34044e-011 -2.32061e-011
170
root  -78.569 41.784 -5.96978 179.162 -87.5542 179.611
RightUpLeg  -0.751914 -6.94403 -3.61572
RightLeg  3.01056 -4.29688 3.36205
RightFoot  0.396121 0.258892 -2.48313
RightToes  -1.16417e-010 0 -3.6325e-017
Spine  1.84225 0.102699 4.40122
Spine1  1.39144 1.50563 -7.11237
HEad  -3.97332 3.31754 2.48178
LeftShoulder1  0.127445 0.10355 5.38498
LeftArm  -20.9285 15.203 -3.84653
LeftForeArm  14.5069 -15.0585 -2.27634
LeftHand  -0.244104 0.0205437 5.32207
RightShoulder  0.404332 -0.853346 7.72906
RightArm  -15.3524 0.69474 -7.96242
RightForeArm  -14.6729 1.26572 5.99984
RightHand  -1.21272 4.24578 -14.8015
LeftUpLeg  1.52078 4.43065 2.01972
LeftLeg  2.48816 8.67465 -3.4122
LeftFoot  -2.57975 -0.170849 2.43359
LeftToes  -1.16419e-010 -9.34044e-011 -2.32061e-011
171
root  -78.5902 41.7789 -6.0047 176.587 -87.6754 -177.884
RightUpLeg  -0.590229 -6.92101 -3.50964
RightLeg  2.97969 -4.44556 3.43704
RightFoot  0.221773 0.260767 -2.55941
RightToes  -1.16417e-010 0 -3.6325e-017
Spine  2.09161 -0.0157747 4.49984
Spine1  1.52914 1.34054 -6.84287
HEad  -4.65461 3.39114 2.20995
LeftShoulder1  0.201416 -0.361469 3.69789
LeftArm  -20.1513 14.2374 -2.89227
LeftForeArm  15.6815 -12.931 -1.93707
LeftHand  -0.244104 0.0205437 5.32207
RightShoulder  0.401518 -0.810555 7.33659
RightArm  -14.3663 1.92956 -7.17104
RightForeArm  -16.6739 0.116184 6.49691
RightHand  -1.34319 4.66205 -15.715
LeftUpLeg  1.52637 4.55968 2.21091
LeftLeg  2.71388 8.40237 -3.38996
LeftFoot  -2.69723 -0.164605 2.39334
LeftToes  -1.16419e-010 -9.34044e-011 -2.32061e-011
172
root  -78.6058 41.7749 -6.04931 175.448 -87.6791 -176.792
RightUpLeg  -0.486135 -6.90255 -3.42171
RightLeg  2.94045 -4.46345 3.49635
RightFoot  0.123174 0.269468 -2.69488
RightToes  -1.16417e-010 0 -3.6325e-017
Spine  2.37608 -0.0730364 4.49992
Spine1  1.6138 1.27 -6.72753
HEad  -5.49264 3.43755 2.0745
LeftShoulder1  0.257494 -0.655329 2.57825
LeftArm  -18.2729 13.2749 -2.28937
LeftForeArm  17.516 -10.4822 -1.99115
LeftHand  -0.244104 0.0205437 5.32207
RightShoulder  0.410772 -0.789173 7.58854
RightArm  -13.602 2.85671 -6.53137
RightForeArm  -17.279 -0.692647 6.85033
RightHand  -1.29523 4.40487 -15.5149
LeftUpLeg  1.57485 4.71401 2.38917
LeftLeg  2.81717 8.20019 -3.44437
LeftFoot  -2.79789 -0.153653 2.28562
LeftToes  -1.16419e-010 -9.34044e-011 -2.32061e-011
173
root  -78.6161 41.7718 -6.10524 177.277 -87.586 -178.524
RightUpLeg  -0.652437 -6.86879 -3.37133
RightLeg  3.07727 -4.40961 3.46872
RightFoot  0.0205789 0.274929 -2.77993
RightToes  -1.16417e-010 0 -3.6325e-017
Spine  2.62765 -0.0290276 4.2717
Spine1  1.52922 1.30011 -6.61464
HEad  -6.4197 3.40589 2.08869
LeftShoulder1  0.275279 -0.715335 2.20572
LeftArm  -17.2199 12.6001 -2.25171
LeftForeArm  22.2803 -8.59587 -1.91727
LeftHand  -0.244104 0.0205437 5.32207
RightShoulder  0.443376 -0.694274 8.30886
RightArm  -13.8721 2.67974 -6.327
RightForeArm  -12.5067 -0.301001 6.49424
RightHand  -0.904824 3.04956 -12.5594
LeftUpLeg  1.54186 4.73672 2.4258
LeftLeg  2.75638 8.23259 -3.4821
LeftFoot  -2.85552 -0.138995 2.10475
LeftToes  -1.16419e-010 -9.34044e-011 -2.32061e-011
174
root  -78.6269 41.7698 -6.16015 178.229 -87.5818 -179.271
RightUpLeg  -0.89423 -6.80083 -3.28172
RightLeg  3.16524 -4.50353 3.43988
RightFoot  -0.104321 0.274243 -2.76926
RightToes  -1.16417e-010 0 -3.6325e-017
Spine  2.77365 -0.00698181 4.07359
Spine1  1.39209 1.30825 -6.54366
HEad  -7.22417 3.09354 2.21705
LeftShoulder1  0.286327 -0.770122 2.01003
LeftArm  -17.1354 12.2621 -3.05879
LeftForeArm  23.0682 -7.49241 -1.81697
LeftHand  -0.244104 0.0205437 5.32207
RightShoulder  0.510574 -0.408884 9.11291
RightArm  -14.0062 2.06248 -6.39242
RightForeArm  -7.41207 0.12989 6.09507
RightHand  -0.593352 2.02193 -9.54989
LeftUpLeg  1.34476 4.6932 2.44038
LeftLeg  2.75407 8.26571 -3.4417
LeftFoot  -2.89515 -0.130383 1.9984
LeftToes  -1.16419e-010 -9.34044e-011 -2.32061e-011
175
root  -78.6412 41.7693 -6.21095 176.502 -87.7875 -177.277
RightUpLeg  -1.07162 -6.71574 -3.11907
RightLeg  3.05094 -4.82535 3.48004
RightFoot  -0.169549 0.274164 -2.76802
RightToes  -1.16417e-010 0 -3.6325e-017
Spine  2.81736 -0.0758686 4.05384
Spine1  1.23322 1.23125 -6.56048
HEad  -7.70133 2.58979 2.34776
LeftShoulder1  0.32063 -1.04541 1.61237
LeftArm  -15.1207 12.113 -3.37705
LeftForeArm  17.8463 -6.64549 -2.65679
LeftHand  -0.244104 0.0205437 5.32207
RightShoulder  0.568648 -0.148068 9.62219
RightArm  -12.6072 2.12173 -6.26173
RightForeArm  -10.0474 -0.760229 6.66867
RightHand  -0.715698 2.45124 -10.7015
LeftUpLeg  0.977625 4.71229 2.55491
LeftLeg  2.92323 8.03823 -3.38561
LeftFoot  -2.94692 -0.129817 2.00734
LeftToes  -1.16419e-010 -9.34044e-011 -2.32061e-011
